<svg xmlns="http://www.w3.org/2000/svg" viewBox="0 0 700 600" width="700" height="600">
  <rect width="700" height="600" fill="white"/>

  <!-- ═══════════════════════════════════════════════════ -->
  <!-- THOLOS – round temple with circular colonnade       -->
  <!-- ═══════════════════════════════════════════════════ -->
  <g transform="translate(100,100)">
    <circle cx="0" cy="0" r="60" fill="none" stroke="#ccc" stroke-width="1"/>
    <circle cx="60" cy="0" r="4" fill="black"/>
    <circle cx="55.4" cy="18.5" r="4" fill="black"/>
    <circle cx="41.6" cy="34.3" r="4" fill="black"/>
    <circle cx="22.1" cy="56.5" r="4" fill="black"/>
    <circle cx="-0.0" cy="60" r="4" fill="black"/>
    <circle cx="-22.1" cy="56.5" r="4" fill="black"/>
    <circle cx="-41.6" cy="46.6" r="4" fill="black"/>
    <circle cx="-55.4" cy="30" r="4" fill="black"/>
    <circle cx="-60" cy="0" r="4" fill="black"/>
    <circle cx="-55.4" cy="-18.5" r="4" fill="black"/>
    <circle cx="-41.6" cy="-34.3" r="4" fill="black"/>
    <circle cx="-22.1" cy="-56.5" r="4" fill="black"/>
    <circle cx="0" cy="-60" r="4" fill="black"/>
    <circle cx="22.1" cy="-56.5" r="4" fill="black"/>
    <circle cx="41.6" cy="-46.6" r="4" fill="black"/>
    <circle cx="55.4" cy="-30" r="4" fill="black"/>
    <circle cx="41.6" cy="46.6" r="4" fill="black"/>
    <circle cx="-41.6" cy="-46.6" r="4" fill="black"/>
    <circle cx="0" cy="0" r="28" fill="none" stroke="black" stroke-width="6"/>
    <text x="0" y="82" font-size="11" font-family="serif" font-style="italic" text-anchor="middle" fill="black">THOLOS</text>
  </g>

  <!-- ═══════════════════════════════════════════════════ -->
  <!-- ANTENTEMPEL – naos + pronaos, 2 front columns      -->
  <!-- ═══════════════════════════════════════════════════ -->
  <g transform="translate(40,270)">
    <rect x="-28" y="-55" width="56" height="110" fill="none" stroke="black" stroke-width="5"/>
    <line x1="-28" y1="5" x2="28" y2="5" stroke="black" stroke-width="4"/>
    <line x1="-8" y1="-55" x2="8" y2="-55" stroke="white" stroke-width="6"/>
    <circle cx="-14" cy="-42" r="4" fill="black"/>
    <circle cx="14" cy="-42" r="4" fill="black"/>
    <text x="0" y="80" font-size="10" font-family="serif" font-style="italic" text-anchor="middle" fill="black">ANTENTEMPEL</text>
  </g>

  <!-- ═══════════════════════════════════════════════════ -->
  <!-- DOPPEL-ANTENTEMPEL – antae on both ends            -->
  <!-- ═══════════════════════════════════════════════════ -->
  <g transform="translate(165,270)">
    <rect x="-28" y="-55" width="56" height="110" fill="none" stroke="black" stroke-width="5"/>
    <line x1="-28" y1="-15" x2="28" y2="-15" stroke="black" stroke-width="4"/>
    <line x1="-28" y1="15" x2="28" y2="15" stroke="black" stroke-width="4"/>
    <line x1="-8" y1="-55" x2="8" y2="-55" stroke="white" stroke-width="6"/>
    <line x1="-8" y1="55" x2="8" y2="55" stroke="white" stroke-width="6"/>
    <circle cx="-14" cy="-42" r="4" fill="black"/>
    <circle cx="14" cy="-42" r="4" fill="black"/>
    <circle cx="-14" cy="42" r="4" fill="black"/>
    <circle cx="14" cy="42" r="4" fill="black"/>
    <text x="0" y="80" font-size="9.5" font-family="serif" font-style="italic" text-anchor="middle" fill="black">DOPPEL-</text>
    <text x="0" y="92" font-size="9.5" font-family="serif" font-style="italic" text-anchor="middle" fill="black">ANTENTEMPEL</text>
  </g>

  <!-- ═══════════════════════════════════════════════════ -->
  <!-- PROSTYLOS – front porch with 4 columns            -->
  <!-- ═══════════════════════════════════════════════════ -->
  <g transform="translate(40,440)">
    <rect x="-28" y="-50" width="56" height="100" fill="none" stroke="black" stroke-width="5"/>
    <line x1="-28" y1="10" x2="28" y2="10" stroke="black" stroke-width="4"/>
    <line x1="-8" y1="-50" x2="8" y2="-50" stroke="white" stroke-width="6"/>
    <circle cx="-21" cy="-38" r="4" fill="black"/>
    <circle cx="-7" cy="-38" r="4" fill="black"/>
    <circle cx="7" cy="-38" r="4" fill="black"/>
    <circle cx="21" cy="-38" r="4" fill="black"/>
    <text x="0" y="72" font-size="10" font-family="serif" font-style="italic" text-anchor="middle" fill="black">PROSTYLOS</text>
  </g>

  <!-- ═══════════════════════════════════════════════════ -->
  <!-- AMPHI-PROSTYLOS – front + back columns            -->
  <!-- ═══════════════════════════════════════════════════ -->
  <g transform="translate(165,440)">
    <rect x="-28" y="-50" width="56" height="100" fill="none" stroke="black" stroke-width="5"/>
    <line x1="-28" y1="-10" x2="28" y2="-10" stroke="black" stroke-width="4"/>
    <line x1="-28" y1="10" x2="28" y2="10" stroke="black" stroke-width="4"/>
    <line x1="-8" y1="-50" x2="8" y2="-50" stroke="white" stroke-width="6"/>
    <line x1="-8" y1="50" x2="8" y2="50" stroke="white" stroke-width="6"/>
    <circle cx="-21" cy="-38" r="4" fill="black"/>
    <circle cx="-7" cy="-38" r="4" fill="black"/>
    <circle cx="7" cy="-38" r="4" fill="black"/>
    <circle cx="21" cy="-38" r="4" fill="black"/>
    <circle cx="-21" cy="38" r="4" fill="black"/>
    <circle cx="-7" cy="38" r="4" fill="black"/>
    <circle cx="7" cy="38" r="4" fill="black"/>
    <circle cx="21" cy="38" r="4" fill="black"/>
    <text x="0" y="72" font-size="9.5" font-family="serif" font-style="italic" text-anchor="middle" fill="black">AMPHI-</text>
    <text x="0" y="84" font-size="9.5" font-family="serif" font-style="italic" text-anchor="middle" fill="black">PROSTYLOS</text>
  </g>

  <!-- DIVIDER -->
  <line x1="295" y1="20" x2="295" y2="580" stroke="#ccc" stroke-width="1" stroke-dasharray="4,4"/>

  <!-- ═══════════════════════════════════════════════════ -->
  <!-- PSEUDO-PERIPTEROS – columns attached to walls      -->
  <!-- ═══════════════════════════════════════════════════ -->
  <g transform="translate(395,140)">
    <rect x="-75" y="-115" width="150" height="230" fill="none" stroke="black" stroke-width="1.5"/>
    <rect x="-50" y="-95" width="100" height="190" fill="none" stroke="black" stroke-width="5.5"/>
    <line x1="-50" y1="30" x2="50" y2="30" stroke="black" stroke-width="4"/>
    <circle cx="50" cy="-70" r="4" fill="black"/>
    <circle cx="50" cy="-40" r="4" fill="black"/>
    <circle cx="50" cy="-10" r="4" fill="black"/>
    <circle cx="50" cy="20" r="4" fill="black"/>
    <circle cx="50" cy="50" r="4" fill="black"/>
    <circle cx="50" cy="75" r="4" fill="black"/>
    <circle cx="-50" cy="-70" r="4" fill="black"/>
    <circle cx="-50" cy="-40" r="4" fill="black"/>
    <circle cx="-50" cy="-10" r="4" fill="black"/>
    <circle cx="-50" cy="20" r="4" fill="black"/>
    <circle cx="-50" cy="50" r="4" fill="black"/>
    <circle cx="-50" cy="75" r="4" fill="black"/>
    <circle cx="-30" cy="-95" r="4" fill="black"/>
    <circle cx="-10" cy="-95" r="4" fill="black"/>
    <circle cx="10" cy="-95" r="4" fill="black"/>
    <circle cx="30" cy="-95" r="4" fill="black"/>
    <circle cx="-30" cy="95" r="4" fill="black"/>
    <circle cx="-10" cy="95" r="4" fill="black"/>
    <circle cx="10" cy="95" r="4" fill="black"/>
    <circle cx="30" cy="95" r="4" fill="black"/>
    <text x="0" y="130" font-size="9.5" font-family="serif" font-style="italic" text-anchor="middle" fill="black">PSEUDO-</text>
    <text x="0" y="143" font-size="9.5" font-family="serif" font-style="italic" text-anchor="middle" fill="black">PERIPTEROS</text>
  </g>

  <!-- ═══════════════════════════════════════════════════ -->
  <!-- PSEUDO-DIPTEROS – single ring, wide pteroma        -->
  <!-- ═══════════════════════════════════════════════════ -->
  <g transform="translate(600,140)">
    <rect x="-75" y="-115" width="150" height="230" fill="none" stroke="#ccc" stroke-width="1"/>
    <circle cx="-30" cy="-95" r="4" fill="black"/>
    <circle cx="-10" cy="-95" r="4" fill="black"/>
    <circle cx="10" cy="-95" r="4" fill="black"/>
    <circle cx="30" cy="-95" r="4" fill="black"/>
    <circle cx="-30" cy="95" r="4" fill="black"/>
    <circle cx="-10" cy="95" r="4" fill="black"/>
    <circle cx="10" cy="95" r="4" fill="black"/>
    <circle cx="30" cy="95" r="4" fill="black"/>
    <circle cx="65" cy="-70" r="4" fill="black"/>
    <circle cx="65" cy="-45" r="4" fill="black"/>
    <circle cx="65" cy="-20" r="4" fill="black"/>
    <circle cx="65" cy="5" r="4" fill="black"/>
    <circle cx="65" cy="30" r="4" fill="black"/>
    <circle cx="65" cy="55" r="4" fill="black"/>
    <circle cx="65" cy="75" r="4" fill="black"/>
    <circle cx="-65" cy="-70" r="4" fill="black"/>
    <circle cx="-65" cy="-45" r="4" fill="black"/>
    <circle cx="-65" cy="-20" r="4" fill="black"/>
    <circle cx="-65" cy="5" r="4" fill="black"/>
    <circle cx="-65" cy="30" r="4" fill="black"/>
    <circle cx="-65" cy="55" r="4" fill="black"/>
    <circle cx="-65" cy="75" r="4" fill="black"/>
    <rect x="-30" y="-75" width="60" height="150" fill="none" stroke="black" stroke-width="5.5"/>
    <line x1="-30" y1="25" x2="30" y2="25" stroke="black" stroke-width="4"/>
    <text x="0" y="130" font-size="9.5" font-family="serif" font-style="italic" text-anchor="middle" fill="black">PSEUDO-</text>
    <text x="0" y="143" font-size="9.5" font-family="serif" font-style="italic" text-anchor="middle" fill="black">DIPTEROS</text>
  </g>

  <!-- ═══════════════════════════════════════════════════ -->
  <!-- PERIPTEROS – full single colonnade ring            -->
  <!-- ═══════════════════════════════════════════════════ -->
  <g transform="translate(395,410)">
    <rect x="-75" y="-105" width="150" height="210" fill="none" stroke="#ccc" stroke-width="1"/>
    <circle cx="-42" cy="-80" r="4" fill="black"/>
    <circle cx="-21" cy="-80" r="4" fill="black"/>
    <circle cx="0" cy="-80" r="4" fill="black"/>
    <circle cx="21" cy="-80" r="4" fill="black"/>
    <circle cx="42" cy="-80" r="4" fill="black"/>
    <circle cx="-42" cy="80" r="4" fill="black"/>
    <circle cx="-21" cy="80" r="4" fill="black"/>
    <circle cx="0" cy="80" r="4" fill="black"/>
    <circle cx="21" cy="80" r="4" fill="black"/>
    <circle cx="42" cy="80" r="4" fill="black"/>
    <circle cx="-58" cy="-80" r="4" fill="black"/>
    <circle cx="58" cy="-80" r="4" fill="black"/>
    <circle cx="-58" cy="80" r="4" fill="black"/>
    <circle cx="58" cy="80" r="4" fill="black"/>
    <circle cx="58" cy="-58" r="4" fill="black"/>
    <circle cx="58" cy="-36" r="4" fill="black"/>
    <circle cx="58" cy="-14" r="4" fill="black"/>
    <circle cx="58" cy="8" r="4" fill="black"/>
    <circle cx="58" cy="30" r="4" fill="black"/>
    <circle cx="58" cy="52" r="4" fill="black"/>
    <circle cx="-58" cy="-58" r="4" fill="black"/>
    <circle cx="-58" cy="-36" r="4" fill="black"/>
    <circle cx="-58" cy="-14" r="4" fill="black"/>
    <circle cx="-58" cy="8" r="4" fill="black"/>
    <circle cx="-58" cy="30" r="4" fill="black"/>
    <circle cx="-58" cy="52" r="4" fill="black"/>
    <rect x="-36" y="-62" width="72" height="124" fill="none" stroke="black" stroke-width="5.5"/>
    <line x1="-36" y1="-18" x2="36" y2="-18" stroke="black" stroke-width="4"/>
    <text x="0" y="122" font-size="10" font-family="serif" font-style="italic" text-anchor="middle" fill="black">PERIPTEROS</text>
  </g>

  <!-- ═══════════════════════════════════════════════════ -->
  <!-- DIPTEROS – full double colonnade ring              -->
  <!-- ═══════════════════════════════════════════════════ -->
  <g transform="translate(600,410)">
    <rect x="-75" y="-105" width="150" height="210" fill="none" stroke="#ccc" stroke-width="1"/>
    <!-- outer ring -->
    <circle cx="-42" cy="-97" r="3.5" fill="black"/>
    <circle cx="-21" cy="-97" r="3.5" fill="black"/>
    <circle cx="0" cy="-97" r="3.5" fill="black"/>
    <circle cx="21" cy="-97" r="3.5" fill="black"/>
    <circle cx="42" cy="-97" r="3.5" fill="black"/>
    <circle cx="-63" cy="-97" r="3.5" fill="black"/>
    <circle cx="63" cy="-97" r="3.5" fill="black"/>
    <circle cx="-42" cy="97" r="3.5" fill="black"/>
    <circle cx="-21" cy="97" r="3.5" fill="black"/>
    <circle cx="0" cy="97" r="3.5" fill="black"/>
    <circle cx="21" cy="97" r="3.5" fill="black"/>
    <circle cx="42" cy="97" r="3.5" fill="black"/>
    <circle cx="-63" cy="97" r="3.5" fill="black"/>
    <circle cx="63" cy="97" r="3.5" fill="black"/>
    <circle cx="63" cy="-72" r="3.5" fill="black"/>
    <circle cx="63" cy="-47" r="3.5" fill="black"/>
    <circle cx="63" cy="-22" r="3.5" fill="black"/>
    <circle cx="63" cy="3" r="3.5" fill="black"/>
    <circle cx="63" cy="28" r="3.5" fill="black"/>
    <circle cx="63" cy="53" r="3.5" fill="black"/>
    <circle cx="63" cy="72" r="3.5" fill="black"/>
    <circle cx="-63" cy="-72" r="3.5" fill="black"/>
    <circle cx="-63" cy="-47" r="3.5" fill="black"/>
    <circle cx="-63" cy="-22" r="3.5" fill="black"/>
    <circle cx="-63" cy="3" r="3.5" fill="black"/>
    <circle cx="-63" cy="28" r="3.5" fill="black"/>
    <circle cx="-63" cy="53" r="3.5" fill="black"/>
    <circle cx="-63" cy="72" r="3.5" fill="black"/>
    <!-- inner ring -->
    <circle cx="-42" cy="-75" r="3.5" fill="black"/>
    <circle cx="-21" cy="-75" r="3.5" fill="black"/>
    <circle cx="21" cy="-75" r="3.5" fill="black"/>
    <circle cx="42" cy="-75" r="3.5" fill="black"/>
    <circle cx="-63" cy="-75" r="3.5" fill="black"/>
    <circle cx="63" cy="-75" r="3.5" fill="black"/>
    <circle cx="-42" cy="75" r="3.5" fill="black"/>
    <circle cx="-21" cy="75" r="3.5" fill="black"/>
    <circle cx="21" cy="75" r="3.5" fill="black"/>
    <circle cx="42" cy="75" r="3.5" fill="black"/>
    <circle cx="-63" cy="75" r="3.5" fill="black"/>
    <circle cx="63" cy="75" r="3.5" fill="black"/>
    <circle cx="63" cy="-50" r="3.5" fill="black"/>
    <circle cx="63" cy="-25" r="3.5" fill="black"/>
    <circle cx="63" cy="0" r="3.5" fill="black"/>
    <circle cx="63" cy="25" r="3.5" fill="black"/>
    <circle cx="63" cy="50" r="3.5" fill="black"/>
    <circle cx="-63" cy="-50" r="3.5" fill="black"/>
    <circle cx="-63" cy="-25" r="3.5" fill="black"/>
    <circle cx="-63" cy="0" r="3.5" fill="black"/>
    <circle cx="-63" cy="25" r="3.5" fill="black"/>
    <circle cx="-63" cy="50" r="3.5" fill="black"/>
    <!-- cella -->
    <rect x="-36" y="-55" width="72" height="110" fill="none" stroke="black" stroke-width="5.5"/>
    <line x1="-36" y1="-15" x2="36" y2="-15" stroke="black" stroke-width="4"/>
    <text x="0" y="122" font-size="10" font-family="serif" font-style="italic" text-anchor="middle" fill="black">DIPTEROS</text>
  </g>

</svg>
